<?xml version="1.0" encoding="utf-8"?>
<svg viewBox="0 0 777.558 160" width="777.558" height="160" xmlns="http://www.w3.org/2000/svg">
  <defs>
    <linearGradient gradientUnits="userSpaceOnUse" x1="75" y1="0" x2="75" y2="150" id="gradient-0" gradientTransform="matrix(0.713701, 0.70045, -0.940446, 0.95824, 89.9956, -49.81784)">
      <stop offset="0" style="stop-color: rgb(234, 4, 126);"/>
      <stop offset="0.375" style="stop-color: rgb(249, 0, 191);"/>
      <stop offset="1" style="stop-color: rgb(89, 2, 236);"/>
    </linearGradient>
  </defs>
  <path d="M 218.772 127.826 C 211.487 127.826 204.925 126.579 199.087 124.084 C 193.248 121.589 188.633 117.996 185.24 113.305 C 181.846 108.615 180.1 103.076 180 96.689 L 202.455 96.689 C 202.754 100.98 204.276 104.373 207.021 106.868 C 209.765 109.363 213.533 110.611 218.323 110.611 C 223.214 110.611 227.056 109.438 229.85 107.093 C 232.645 104.747 234.042 101.679 234.042 97.886 C 234.042 94.792 233.094 92.248 231.198 90.251 C 229.301 88.255 226.931 86.684 224.087 85.536 C 221.243 84.388 217.325 83.116 212.335 81.719 C 205.549 79.723 200.035 77.751 195.793 75.805 C 191.552 73.859 187.909 70.915 184.865 66.973 C 181.821 63.031 180.299 57.766 180.299 51.18 C 180.299 44.992 181.846 39.603 184.94 35.012 C 188.034 30.421 192.375 26.903 197.964 24.458 C 203.553 22.013 209.94 20.79 217.126 20.79 C 227.904 20.79 236.662 23.41 243.398 28.65 C 250.135 33.889 253.852 41.2 254.551 50.581 L 231.497 50.581 C 231.297 46.988 229.775 44.019 226.931 41.674 C 224.087 39.328 220.319 38.156 215.629 38.156 C 211.537 38.156 208.268 39.204 205.823 41.299 C 203.378 43.395 202.156 46.439 202.156 50.431 C 202.156 53.226 203.079 55.546 204.925 57.392 C 206.771 59.239 209.067 60.736 211.811 61.883 C 214.556 63.031 218.423 64.353 223.413 65.85 C 230.2 67.846 235.739 69.842 240.03 71.838 C 244.321 73.834 248.014 76.828 251.108 80.82 C 254.202 84.812 255.748 90.052 255.748 96.539 C 255.748 102.128 254.301 107.317 251.407 112.108 C 248.513 116.898 244.271 120.716 238.683 123.56 C 233.094 126.404 226.457 127.826 218.772 127.826 Z M 298.256 61.06 L 298.256 101.18 C 298.256 103.974 298.93 105.995 300.277 107.243 C 301.625 108.49 303.895 109.114 307.089 109.114 L 316.819 109.114 L 316.819 126.778 L 303.646 126.778 C 285.981 126.778 277.149 118.196 277.149 101.03 L 277.149 61.06 L 267.268 61.06 L 267.268 43.844 L 277.149 43.844 L 277.149 23.335 L 298.256 23.335 L 298.256 43.844 L 316.819 43.844 L 316.819 61.06 L 298.256 61.06 Z M 411.284 43.844 L 359.937 166 L 337.632 166 L 355.596 124.683 L 322.362 43.844 L 345.865 43.844 L 367.272 101.778 L 388.979 43.844 L 411.284 43.844 Z M 417.125 85.311 C 417.125 76.729 418.871 69.219 422.364 62.781 C 425.857 56.344 430.698 51.354 436.885 47.811 C 443.073 44.268 450.159 42.497 458.143 42.497 C 468.422 42.497 476.93 45.067 483.667 50.207 C 490.403 55.346 494.919 62.557 497.215 71.838 L 474.61 71.838 C 473.412 68.246 471.391 65.426 468.547 63.38 C 465.703 61.334 462.185 60.311 457.993 60.311 C 452.005 60.311 447.264 62.482 443.771 66.823 C 440.278 71.165 438.532 77.327 438.532 85.311 C 438.532 93.196 440.278 99.308 443.771 103.65 C 447.264 107.991 452.005 110.162 457.993 110.162 C 466.476 110.162 472.015 106.369 474.61 98.784 L 497.215 98.784 C 494.919 107.766 490.378 114.902 483.592 120.192 C 476.805 125.481 468.322 128.126 458.143 128.126 C 450.159 128.126 443.073 126.354 436.885 122.811 C 430.698 119.268 425.857 114.278 422.364 107.841 C 418.871 101.404 417.125 93.894 417.125 85.311 Z M 561.727 126.778 L 533.583 91.449 L 533.583 126.778 L 512.625 126.778 L 512.625 16 L 533.583 16 L 533.583 79.024 L 561.427 43.844 L 588.673 43.844 L 552.146 85.461 L 588.972 126.778 L 561.727 126.778 Z M 677.155 83.515 C 677.155 86.509 676.955 89.204 676.556 91.599 L 615.927 91.599 C 616.426 97.587 618.522 102.277 622.215 105.671 C 625.907 109.064 630.448 110.76 635.837 110.76 C 643.622 110.76 649.161 107.417 652.454 100.731 L 675.059 100.731 C 672.664 108.715 668.073 115.276 661.286 120.416 C 654.5 125.556 646.167 128.126 636.286 128.126 C 628.302 128.126 621.142 126.354 614.804 122.811 C 608.467 119.268 603.527 114.253 599.984 107.766 C 596.441 101.279 594.67 93.794 594.67 85.311 C 594.67 76.729 596.416 69.194 599.909 62.707 C 603.402 56.22 608.292 51.23 614.58 47.737 C 620.867 44.244 628.103 42.497 636.286 42.497 C 644.171 42.497 651.232 44.194 657.469 47.587 C 663.707 50.98 668.547 55.795 671.99 62.033 C 675.433 68.27 677.155 75.431 677.155 83.515 Z M 655.448 77.527 C 655.348 72.138 653.402 67.821 649.61 64.578 C 645.817 61.334 641.177 59.713 635.688 59.713 C 630.498 59.713 626.132 61.284 622.589 64.428 C 619.046 67.572 616.875 71.938 616.077 77.527 L 655.448 77.527 Z M 713.372 56.719 C 716.067 52.327 719.585 48.884 723.926 46.389 C 728.267 43.894 733.233 42.647 738.821 42.647 L 738.821 64.653 L 733.282 64.653 C 726.696 64.653 721.731 66.2 718.387 69.293 C 715.044 72.387 713.372 77.776 713.372 85.461 L 713.372 126.778 L 692.414 126.778 L 692.414 43.844 L 713.372 43.844 L 713.372 56.719 Z" style="fill: rgb(180,198,239); white-space: pre;"/>
  <path id="color_x5F_1_18_" d="M 126.853 150 C 139.637 150 150 139.637 150 126.853 L 150 23.147 C 150 10.363 139.637 0 126.853 0 L 23.147 0 C 10.363 0 0 10.363 0 23.147 L 0 126.853 C 0 139.637 10.363 150 23.147 150 L 126.853 150 Z M 32.459 43.982 C 32.459 37.618 37.618 32.459 43.982 32.459 L 106.018 32.459 C 112.382 32.459 117.541 37.618 117.541 43.982 L 117.541 106.018 C 117.541 112.382 112.382 117.541 106.018 117.541 L 43.982 117.541 C 37.618 117.541 32.459 112.382 32.459 106.018 L 32.459 43.982 Z" style="fill: url(#gradient-0);"/>
</svg>